<svg xmlns="http://www.w3.org/2000/svg" viewBox="2209.199 22.804 69.218 44.366">
  <defs>
    <style>
      .cls-1 {
        fill: #eb3b5a;
      }

      .cls-2 {
        fill: #fc5c65;
      }

      .cls-3 {
        fill: #fff;
      }
    </style>
  </defs>
  <g id="cloud" transform="translate(2169 -8)">
    <path id="Path_2" data-name="Path 2" class="cls-1" d="M63.3,117.053a11.866,11.866,0,0,0-1.267.047.619.619,0,0,1-.65-.789,14.512,14.512,0,0,0,.569-4.318,14.822,14.822,0,0,0-29.283-2.767.627.627,0,0,1-.915.416,16.225,16.225,0,1,0-8.96,30.306l0,.035H63.11a11.466,11.466,0,1,0,.192-22.931Z" transform="translate(33.698 -65.82)"/>
    <path id="Path_3" data-name="Path 3" class="cls-2" d="M249.673,128.419a11.427,11.427,0,0,1-5.653,9.95,11.315,11.315,0,0,0,1.634-5.973,11.567,11.567,0,0,0-11.4-11.364,12,12,0,0,0-1.267.047.618.618,0,0,1-.65-.788,14.483,14.483,0,0,0,.569-4.319A14.84,14.84,0,0,0,209.841,104.1a14.839,14.839,0,0,1,27.084,7.9,14.561,14.561,0,0,1-.569,4.317.62.62,0,0,0,.65.789,11.594,11.594,0,0,1,12.666,11.316Z" transform="translate(-141.273 -65.822)"/>
    <path id="Path_4" data-name="Path 4" class="cls-3" d="M112.728,113.231a12.6,12.6,0,0,0-8.731-3.7c-.271,0-.543,0-.814.013a15.529,15.529,0,0,0,.465-4.086A15.782,15.782,0,0,0,87.829,90.111h-.166a15.956,15.956,0,0,0-9.917,3.59,15.692,15.692,0,0,0-5.277,8.308,17.551,17.551,0,0,0-7.769-1.889h-.152a17.369,17.369,0,0,0-9.537,2.842,1,1,0,0,0-.287,1.393,1.023,1.023,0,0,0,1.408.284,15.426,15.426,0,0,1,15.811-.629,1.646,1.646,0,0,0,2.4-1.088,13.659,13.659,0,0,1,4.7-7.671,13.9,13.9,0,0,1,8.641-3.128h.144A13.754,13.754,0,0,1,101.615,105.5a13.523,13.523,0,0,1-.53,4.023,1.616,1.616,0,0,0,.315,1.489,1.637,1.637,0,0,0,1.406.578,10.934,10.934,0,0,1,1.157-.043,10.582,10.582,0,0,1,10.4,10.367,10.332,10.332,0,0,1-3.065,7.458,10.56,10.56,0,0,1-7.511,3.1H77.045a1.005,1.005,0,1,0,0,2.011h26.743a12.59,12.59,0,0,0,8.954-3.691,12.351,12.351,0,0,0-.015-17.555Z" transform="translate(-6.98 -59.307)"/>
    <path id="Path_5" data-name="Path 5" class="cls-3" d="M23.452,243.1h-6.57l-.521-.033A15.235,15.235,0,0,1,2.033,227.8,14.916,14.916,0,0,1,4.711,219.4a1,1,0,0,0-.263-1.4,1.023,1.023,0,0,0-1.413.26A16.905,16.905,0,0,0,0,227.777a17.245,17.245,0,0,0,15.2,17.2l-.011.134h8.266a1.005,1.005,0,1,0,0-2.01Z" transform="translate(40.199 -169.944)"/>
    <path id="Path_6" data-name="Path 6" class="cls-3" d="M182.512,190.7a1.011,1.011,0,0,1-1.016-1.005c0-7.3-7.617-10.557-7.694-10.59a1,1,0,0,1-.542-1.317,1.02,1.02,0,0,1,1.331-.536,17.319,17.319,0,0,1,4.448,2.922,12.648,12.648,0,0,1,4.49,9.52A1.011,1.011,0,0,1,182.512,190.7Z" transform="translate(-109.568 -134.726)"/>
  </g>
</svg>
