<svg xmlns="http://www.w3.org/2000/svg" viewBox="2267 808.881 137.119 137.119">
  <defs>
    <style>
      .cls-1 {
        fill: #2ecc71;
      }

      .cls-2 {
        fill: #231f20;
      }

      .cls-3 {
        fill: #fff;
      }
    </style>
  </defs>
  <g id="Group_12" data-name="Group 12" transform="translate(2175 12)">
    <circle id="Ellipse_4" data-name="Ellipse 4" class="cls-1" cx="68.559" cy="68.559" r="68.559" transform="translate(92 796.881)"/>
    <g id="Group_9" data-name="Group 9" transform="translate(119.852 833.16)">
      <path id="Path_15" data-name="Path 15" class="cls-2" d="M14.823,86.536c3.419,4.437,10.481,4.726,15.773.649,2.153-1.66,5.971-6.168,5.971-15.409V43.2l40.707-7.775V53.462c0,6.363-5.153,7.824-6.877,8.15-.15.019-.3.056-.448.081l-.193.024.028.009a13.773,13.773,0,0,0-5.933,2.642c-5.292,4.077-6.815,10.978-3.4,15.417s10.481,4.731,15.773.653c2.68-2.065,5.33-6.05,5.33-12.276V20.32c0-2.524-2.048-3.949-4.57-3.177L35.854,24.918c-2.524.769-3.572,3.443-3.572,5.967V58.722c0,6.372-5.881,9.322-7.6,9.641-.088.013-.174.041-.266.056-.225.036-.371.049-.371.049l.049.024a13.788,13.788,0,0,0-5.877,2.629C12.927,75.2,11.41,82.1,14.823,86.536Z" transform="translate(-13 -16.933)"/>
    </g>
    <g id="Group_11" data-name="Group 11" transform="translate(119.852 828.875)">
      <path id="Path_16" data-name="Path 16" class="cls-3" d="M14.823,84.536c3.419,4.437,10.481,4.726,15.773.649,2.153-1.66,5.971-6.168,5.971-15.409V41.2l40.707-7.775V51.462c0,6.363-5.153,7.824-6.877,8.15-.15.019-.3.056-.448.081l-.193.024.028.009a13.773,13.773,0,0,0-5.933,2.642c-5.292,4.077-6.815,10.978-3.4,15.417s10.481,4.731,15.773.653c2.68-2.065,5.33-6.05,5.33-12.276V18.32c0-2.524-2.048-3.949-4.57-3.177L35.854,22.918c-2.524.769-3.572,3.443-3.572,5.967V56.722c0,6.372-5.881,9.322-7.6,9.641-.088.013-.174.041-.266.056-.225.036-.371.049-.371.049l.049.024a13.788,13.788,0,0,0-5.877,2.629C12.927,73.2,11.41,80.1,14.823,84.536Z" transform="translate(-13 -14.933)"/>
    </g>
  </g>
</svg>
